<?xml version="1.0" encoding="UTF-8"?>
<svg width="512" height="512" viewBox="0 0 512 512" fill="none" xmlns="http://www.w3.org/2000/svg">
  <rect width="512" height="512" rx="256" fill="#3B82F6"/>
  <path d="M256 128C185.308 128 128 185.308 128 256C128 326.692 185.308 384 256 384C326.692 384 384 326.692 384 256C384 185.308 326.692 128 256 128ZM312 272H272V312C272 320.8 264.8 328 256 328C247.2 328 240 320.8 240 312V272H200C191.2 272 184 264.8 184 256C184 247.2 191.2 240 200 240H240V200C240 191.2 247.2 184 256 184C264.8 184 272 191.2 272 200V240H312C320.8 240 328 247.2 328 256C328 264.8 320.8 272 312 272Z" fill="white"/>
</svg>
